<svg xmlns="http://www.w3.org/2000/svg" xmlns:xlink="http://www.w3.org/1999/xlink" width="940" zoomAndPan="magnify" viewBox="0 0 705 591.000005" height="788" preserveAspectRatio="xMidYMid meet" version="1.0"><defs><clipPath id="5addc0fd08"><path d="M 147 82 L 552 82 L 552 549 L 147 549 Z M 147 82 " clip-rule="nonzero"/></clipPath><clipPath id="c5af941c12"><path d="M 282.335938 59 L 563.671875 159.492188 L 422.628906 554.347656 L 141.292969 453.859375 Z M 282.335938 59 " clip-rule="nonzero"/></clipPath><clipPath id="fae1603b5a"><path d="M 282.335938 59 L 563.671875 159.492188 L 422.628906 554.347656 L 141.292969 453.859375 Z M 282.335938 59 " clip-rule="nonzero"/></clipPath><clipPath id="276c680403"><path d="M 170 104 L 528 104 L 528 527 L 170 527 Z M 170 104 " clip-rule="nonzero"/></clipPath><clipPath id="88a573f44e"><path d="M 282.335938 59 L 563.671875 159.492188 L 422.628906 554.347656 L 141.292969 453.859375 Z M 282.335938 59 " clip-rule="nonzero"/></clipPath><clipPath id="1d12fc795a"><path d="M 282.335938 59 L 563.671875 159.492188 L 422.628906 554.347656 L 141.292969 453.859375 Z M 282.335938 59 " clip-rule="nonzero"/></clipPath><clipPath id="1e09e52e7a"><path d="M 321 80 L 503 80 L 503 198 L 321 198 Z M 321 80 " clip-rule="nonzero"/></clipPath><clipPath id="591554d9e6"><path d="M 282.335938 59 L 563.671875 159.492188 L 422.628906 554.347656 L 141.292969 453.859375 Z M 282.335938 59 " clip-rule="nonzero"/></clipPath><clipPath id="2774e42738"><path d="M 282.335938 59 L 563.671875 159.492188 L 422.628906 554.347656 L 141.292969 453.859375 Z M 282.335938 59 " clip-rule="nonzero"/></clipPath><clipPath id="e73a326779"><path d="M 267 165 L 388 165 L 388 278 L 267 278 Z M 267 165 " clip-rule="nonzero"/></clipPath><clipPath id="f020df62bb"><path d="M 282.335938 59 L 563.671875 159.492188 L 422.628906 554.347656 L 141.292969 453.859375 Z M 282.335938 59 " clip-rule="nonzero"/></clipPath><clipPath id="6878cfe44f"><path d="M 282.335938 59 L 563.671875 159.492188 L 422.628906 554.347656 L 141.292969 453.859375 Z M 282.335938 59 " clip-rule="nonzero"/></clipPath><clipPath id="3d19d7c3b6"><path d="M 296 184 L 368 184 L 368 254 L 296 254 Z M 296 184 " clip-rule="nonzero"/></clipPath><clipPath id="e22fd0a4bb"><path d="M 282.335938 59 L 563.671875 159.492188 L 422.628906 554.347656 L 141.292969 453.859375 Z M 282.335938 59 " clip-rule="nonzero"/></clipPath><clipPath id="660dcd2b31"><path d="M 282.335938 59 L 563.671875 159.492188 L 422.628906 554.347656 L 141.292969 453.859375 Z M 282.335938 59 " clip-rule="nonzero"/></clipPath><clipPath id="d781aa5026"><path d="M 265 168 L 394 168 L 394 275 L 265 275 Z M 265 168 " clip-rule="nonzero"/></clipPath><clipPath id="6821d34a7f"><path d="M 282.335938 59 L 563.671875 159.492188 L 422.628906 554.347656 L 141.292969 453.859375 Z M 282.335938 59 " clip-rule="nonzero"/></clipPath><clipPath id="d2bb8c6a85"><path d="M 282.335938 59 L 563.671875 159.492188 L 422.628906 554.347656 L 141.292969 453.859375 Z M 282.335938 59 " clip-rule="nonzero"/></clipPath><clipPath id="b9359aff97"><path d="M 335 148 L 545 148 L 545 300 L 335 300 Z M 335 148 " clip-rule="nonzero"/></clipPath><clipPath id="afe6e201b3"><path d="M 282.335938 59 L 563.671875 159.492188 L 422.628906 554.347656 L 141.292969 453.859375 Z M 282.335938 59 " clip-rule="nonzero"/></clipPath><clipPath id="5a402d6422"><path d="M 282.335938 59 L 563.671875 159.492188 L 422.628906 554.347656 L 141.292969 453.859375 Z M 282.335938 59 " clip-rule="nonzero"/></clipPath><clipPath id="83a45fb202"><path d="M 323 183 L 504 183 L 504 326 L 323 326 Z M 323 183 " clip-rule="nonzero"/></clipPath><clipPath id="2acb3c656b"><path d="M 282.335938 59 L 563.671875 159.492188 L 422.628906 554.347656 L 141.292969 453.859375 Z M 282.335938 59 " clip-rule="nonzero"/></clipPath><clipPath id="bdc915c64e"><path d="M 282.335938 59 L 563.671875 159.492188 L 422.628906 554.347656 L 141.292969 453.859375 Z M 282.335938 59 " clip-rule="nonzero"/></clipPath><clipPath id="9f6a680d18"><path d="M 390 208 L 532 208 L 532 336 L 390 336 Z M 390 208 " clip-rule="nonzero"/></clipPath><clipPath id="38e0ede05e"><path d="M 282.335938 59 L 563.671875 159.492188 L 422.628906 554.347656 L 141.292969 453.859375 Z M 282.335938 59 " clip-rule="nonzero"/></clipPath><clipPath id="ac2790c436"><path d="M 282.335938 59 L 563.671875 159.492188 L 422.628906 554.347656 L 141.292969 453.859375 Z M 282.335938 59 " clip-rule="nonzero"/></clipPath><clipPath id="f24d1eec21"><path d="M 329 165 L 486 165 L 486 298 L 329 298 Z M 329 165 " clip-rule="nonzero"/></clipPath><clipPath id="48ef7cf90e"><path d="M 282.335938 59 L 563.671875 159.492188 L 422.628906 554.347656 L 141.292969 453.859375 Z M 282.335938 59 " clip-rule="nonzero"/></clipPath><clipPath id="9278602311"><path d="M 282.335938 59 L 563.671875 159.492188 L 422.628906 554.347656 L 141.292969 453.859375 Z M 282.335938 59 " clip-rule="nonzero"/></clipPath><clipPath id="0d199ff75e"><path d="M 376 181 L 539 181 L 539 317 L 376 317 Z M 376 181 " clip-rule="nonzero"/></clipPath><clipPath id="72c0ee8593"><path d="M 282.335938 59 L 563.671875 159.492188 L 422.628906 554.347656 L 141.292969 453.859375 Z M 282.335938 59 " clip-rule="nonzero"/></clipPath><clipPath id="8ed5396284"><path d="M 282.335938 59 L 563.671875 159.492188 L 422.628906 554.347656 L 141.292969 453.859375 Z M 282.335938 59 " clip-rule="nonzero"/></clipPath><clipPath id="bf6fc687b0"><path d="M 318 198 L 527 198 L 527 350 L 318 350 Z M 318 198 " clip-rule="nonzero"/></clipPath><clipPath id="e0abb21b06"><path d="M 282.335938 59 L 563.671875 159.492188 L 422.628906 554.347656 L 141.292969 453.859375 Z M 282.335938 59 " clip-rule="nonzero"/></clipPath><clipPath id="bd5199fc31"><path d="M 282.335938 59 L 563.671875 159.492188 L 422.628906 554.347656 L 141.292969 453.859375 Z M 282.335938 59 " clip-rule="nonzero"/></clipPath><clipPath id="b6ef27b040"><path d="M 311 215 L 468 215 L 468 348 L 311 348 Z M 311 215 " clip-rule="nonzero"/></clipPath><clipPath id="860f07547e"><path d="M 282.335938 59 L 563.671875 159.492188 L 422.628906 554.347656 L 141.292969 453.859375 Z M 282.335938 59 " clip-rule="nonzero"/></clipPath><clipPath id="d205317c90"><path d="M 282.335938 59 L 563.671875 159.492188 L 422.628906 554.347656 L 141.292969 453.859375 Z M 282.335938 59 " clip-rule="nonzero"/></clipPath><clipPath id="77d5f01fd4"><path d="M 358 232 L 521 232 L 521 367 L 358 367 Z M 358 232 " clip-rule="nonzero"/></clipPath><clipPath id="e2affe7f93"><path d="M 282.335938 59 L 563.671875 159.492188 L 422.628906 554.347656 L 141.292969 453.859375 Z M 282.335938 59 " clip-rule="nonzero"/></clipPath><clipPath id="115e842cf7"><path d="M 282.335938 59 L 563.671875 159.492188 L 422.628906 554.347656 L 141.292969 453.859375 Z M 282.335938 59 " clip-rule="nonzero"/></clipPath><clipPath id="76ad695c9e"><path d="M 197 212 L 508 212 L 508 401 L 197 401 Z M 197 212 " clip-rule="nonzero"/></clipPath><clipPath id="a63641e81f"><path d="M 282.335938 59 L 563.671875 159.492188 L 422.628906 554.347656 L 141.292969 453.859375 Z M 282.335938 59 " clip-rule="nonzero"/></clipPath><clipPath id="bb6feedaa1"><path d="M 282.335938 59 L 563.671875 159.492188 L 422.628906 554.347656 L 141.292969 453.859375 Z M 282.335938 59 " clip-rule="nonzero"/></clipPath><clipPath id="9e8c9e2c6a"><path d="M 184 247 L 436 247 L 436 414 L 184 414 Z M 184 247 " clip-rule="nonzero"/></clipPath><clipPath id="e26579c3a4"><path d="M 282.335938 59 L 563.671875 159.492188 L 422.628906 554.347656 L 141.292969 453.859375 Z M 282.335938 59 " clip-rule="nonzero"/></clipPath><clipPath id="c987da58ca"><path d="M 282.335938 59 L 563.671875 159.492188 L 422.628906 554.347656 L 141.292969 453.859375 Z M 282.335938 59 " clip-rule="nonzero"/></clipPath><clipPath id="b9090968b3"><path d="M 330 299 L 496 299 L 496 436 L 330 436 Z M 330 299 " clip-rule="nonzero"/></clipPath><clipPath id="18bd9da7fc"><path d="M 282.335938 59 L 563.671875 159.492188 L 422.628906 554.347656 L 141.292969 453.859375 Z M 282.335938 59 " clip-rule="nonzero"/></clipPath><clipPath id="bdfdfd1460"><path d="M 282.335938 59 L 563.671875 159.492188 L 422.628906 554.347656 L 141.292969 453.859375 Z M 282.335938 59 " clip-rule="nonzero"/></clipPath><clipPath id="840946754d"><path d="M 191 229 L 389 229 L 389 377 L 191 377 Z M 191 229 " clip-rule="nonzero"/></clipPath><clipPath id="af4a035482"><path d="M 282.335938 59 L 563.671875 159.492188 L 422.628906 554.347656 L 141.292969 453.859375 Z M 282.335938 59 " clip-rule="nonzero"/></clipPath><clipPath id="57fc32e2de"><path d="M 282.335938 59 L 563.671875 159.492188 L 422.628906 554.347656 L 141.292969 453.859375 Z M 282.335938 59 " clip-rule="nonzero"/></clipPath><clipPath id="ed9d061b3c"><path d="M 291 265 L 502 265 L 502 418 L 291 418 Z M 291 265 " clip-rule="nonzero"/></clipPath><clipPath id="ad31144760"><path d="M 282.335938 59 L 563.671875 159.492188 L 422.628906 554.347656 L 141.292969 453.859375 Z M 282.335938 59 " clip-rule="nonzero"/></clipPath><clipPath id="eaf03a8958"><path d="M 282.335938 59 L 563.671875 159.492188 L 422.628906 554.347656 L 141.292969 453.859375 Z M 282.335938 59 " clip-rule="nonzero"/></clipPath><clipPath id="6a5f3ba0c3"><path d="M 177 267 L 489 267 L 489 456 L 177 456 Z M 177 267 " clip-rule="nonzero"/></clipPath><clipPath id="39bf4be476"><path d="M 282.335938 59 L 563.671875 159.492188 L 422.628906 554.347656 L 141.292969 453.859375 Z M 282.335938 59 " clip-rule="nonzero"/></clipPath><clipPath id="bc2b23cecb"><path d="M 282.335938 59 L 563.671875 159.492188 L 422.628906 554.347656 L 141.292969 453.859375 Z M 282.335938 59 " clip-rule="nonzero"/></clipPath><clipPath id="bc80565223"><path d="M 165 302 L 417 302 L 417 469 L 165 469 Z M 165 302 " clip-rule="nonzero"/></clipPath><clipPath id="b08d6662a7"><path d="M 282.335938 59 L 563.671875 159.492188 L 422.628906 554.347656 L 141.292969 453.859375 Z M 282.335938 59 " clip-rule="nonzero"/></clipPath><clipPath id="9f7e66585b"><path d="M 282.335938 59 L 563.671875 159.492188 L 422.628906 554.347656 L 141.292969 453.859375 Z M 282.335938 59 " clip-rule="nonzero"/></clipPath><clipPath id="79aa0c902b"><path d="M 310 354 L 476 354 L 476 491 L 310 491 Z M 310 354 " clip-rule="nonzero"/></clipPath><clipPath id="6670ef2d7b"><path d="M 282.335938 59 L 563.671875 159.492188 L 422.628906 554.347656 L 141.292969 453.859375 Z M 282.335938 59 " clip-rule="nonzero"/></clipPath><clipPath id="33808074d7"><path d="M 282.335938 59 L 563.671875 159.492188 L 422.628906 554.347656 L 141.292969 453.859375 Z M 282.335938 59 " clip-rule="nonzero"/></clipPath><clipPath id="087ba16048"><path d="M 171 284 L 369 284 L 369 432 L 171 432 Z M 171 284 " clip-rule="nonzero"/></clipPath><clipPath id="8f11d4ac92"><path d="M 282.335938 59 L 563.671875 159.492188 L 422.628906 554.347656 L 141.292969 453.859375 Z M 282.335938 59 " clip-rule="nonzero"/></clipPath><clipPath id="d6fc1a6556"><path d="M 282.335938 59 L 563.671875 159.492188 L 422.628906 554.347656 L 141.292969 453.859375 Z M 282.335938 59 " clip-rule="nonzero"/></clipPath><clipPath id="7ad0e7cfae"><path d="M 271 320 L 483 320 L 483 473 L 271 473 Z M 271 320 " clip-rule="nonzero"/></clipPath><clipPath id="33ad2120e1"><path d="M 282.335938 59 L 563.671875 159.492188 L 422.628906 554.347656 L 141.292969 453.859375 Z M 282.335938 59 " clip-rule="nonzero"/></clipPath><clipPath id="fbfcaf865d"><path d="M 282.335938 59 L 563.671875 159.492188 L 422.628906 554.347656 L 141.292969 453.859375 Z M 282.335938 59 " clip-rule="nonzero"/></clipPath><clipPath id="871e6481ec"><path d="M 158 319 L 470 319 L 470 508 L 158 508 Z M 158 319 " clip-rule="nonzero"/></clipPath><clipPath id="801492dad4"><path d="M 282.335938 59 L 563.671875 159.492188 L 422.628906 554.347656 L 141.292969 453.859375 Z M 282.335938 59 " clip-rule="nonzero"/></clipPath><clipPath id="bf243874d4"><path d="M 282.335938 59 L 563.671875 159.492188 L 422.628906 554.347656 L 141.292969 453.859375 Z M 282.335938 59 " clip-rule="nonzero"/></clipPath><clipPath id="9beec1783d"><path d="M 146 354 L 398 354 L 398 521 L 146 521 Z M 146 354 " clip-rule="nonzero"/></clipPath><clipPath id="5c43cc2d02"><path d="M 282.335938 59 L 563.671875 159.492188 L 422.628906 554.347656 L 141.292969 453.859375 Z M 282.335938 59 " clip-rule="nonzero"/></clipPath><clipPath id="ad81ede453"><path d="M 282.335938 59 L 563.671875 159.492188 L 422.628906 554.347656 L 141.292969 453.859375 Z M 282.335938 59 " clip-rule="nonzero"/></clipPath><clipPath id="9342375c63"><path d="M 292 406 L 458 406 L 458 543 L 292 543 Z M 292 406 " clip-rule="nonzero"/></clipPath><clipPath id="10ffdb93f5"><path d="M 282.335938 59 L 563.671875 159.492188 L 422.628906 554.347656 L 141.292969 453.859375 Z M 282.335938 59 " clip-rule="nonzero"/></clipPath><clipPath id="7222449722"><path d="M 282.335938 59 L 563.671875 159.492188 L 422.628906 554.347656 L 141.292969 453.859375 Z M 282.335938 59 " clip-rule="nonzero"/></clipPath><clipPath id="01f6185ef0"><path d="M 153 336 L 351 336 L 351 484 L 153 484 Z M 153 336 " clip-rule="nonzero"/></clipPath><clipPath id="4f65b126bf"><path d="M 282.335938 59 L 563.671875 159.492188 L 422.628906 554.347656 L 141.292969 453.859375 Z M 282.335938 59 " clip-rule="nonzero"/></clipPath><clipPath id="5c216303a1"><path d="M 282.335938 59 L 563.671875 159.492188 L 422.628906 554.347656 L 141.292969 453.859375 Z M 282.335938 59 " clip-rule="nonzero"/></clipPath><clipPath id="5bfb973a1d"><path d="M 253 372 L 464 372 L 464 525 L 253 525 Z M 253 372 " clip-rule="nonzero"/></clipPath><clipPath id="854dac4cff"><path d="M 282.335938 59 L 563.671875 159.492188 L 422.628906 554.347656 L 141.292969 453.859375 Z M 282.335938 59 " clip-rule="nonzero"/></clipPath><clipPath id="9f346a9291"><path d="M 282.335938 59 L 563.671875 159.492188 L 422.628906 554.347656 L 141.292969 453.859375 Z M 282.335938 59 " clip-rule="nonzero"/></clipPath></defs><g clip-path="url(#5addc0fd08)"><g clip-path="url(#c5af941c12)"><g clip-path="url(#fae1603b5a)"><path fill="#432e54" d="M 427.757812 536.601562 C 424.363281 546.109375 413.914062 551.058594 404.40625 547.664062 L 159.398438 460.148438 C 149.890625 456.753906 144.941406 446.304688 148.339844 436.792969 L 270.671875 94.3125 C 274.058594 84.824219 284.515625 79.855469 294.023438 83.253906 L 539.027344 170.765625 C 548.539062 174.164062 553.480469 184.632812 550.089844 194.121094 L 427.757812 536.601562 " fill-opacity="1" fill-rule="nonzero"/></g></g></g><g clip-path="url(#276c680403)"><g clip-path="url(#88a573f44e)"><g clip-path="url(#1d12fc795a)"><path fill="#ffffff" d="M 407.074219 526.746094 L 170.585938 442.273438 L 291.355469 104.167969 L 527.84375 188.640625 L 407.074219 526.746094 " fill-opacity="1" fill-rule="nonzero"/></g></g></g><g clip-path="url(#1e09e52e7a)"><g clip-path="url(#591554d9e6)"><g clip-path="url(#2774e42738)"><path fill="#432e50" d="M 481.296875 197.496094 L 321.753906 140.511719 L 343.121094 80.691406 L 502.664062 137.679688 L 481.296875 197.496094 " fill-opacity="1" fill-rule="nonzero"/></g></g></g><g clip-path="url(#e73a326779)"><g clip-path="url(#f020df62bb)"><g clip-path="url(#6878cfe44f)"><path fill="#e8bcb9" d="M 359.632812 277.054688 L 267.113281 244.003906 L 295.03125 165.84375 L 387.554688 198.894531 L 359.632812 277.054688 " fill-opacity="1" fill-rule="nonzero"/></g></g></g><g clip-path="url(#3d19d7c3b6)"><g clip-path="url(#e22fd0a4bb)"><g clip-path="url(#660dcd2b31)"><path fill="#ec3152" d="M 315.847656 253.628906 L 297.664062 208.148438 C 294.078125 199.152344 298.445312 188.933594 307.441406 185.351562 C 316.4375 181.769531 326.636719 186.128906 330.238281 195.132812 L 333.675781 203.71875 L 341.757812 199.246094 C 350.25 194.5625 360.898438 197.648438 365.589844 206.121094 C 370.28125 214.59375 367.207031 225.273438 358.714844 229.957031 L 315.847656 253.628906 " fill-opacity="1" fill-rule="nonzero"/></g></g></g><g clip-path="url(#d781aa5026)"><g clip-path="url(#6821d34a7f)"><g clip-path="url(#d2bb8c6a85)"><path stroke-linecap="butt" transform="matrix(0.198932, 0.0710571, 0.0710571, -0.198932, -221.598783, 578.407204)" fill="none" stroke-linejoin="miter" d="M 1755.396216 2475.505358 L 1878.792045 2475.498424 L 1901.091919 2547.202619 L 1926.609106 2410.401207 L 1953.807613 2478.396319 L 2015.402905 2478.405287 " stroke="#ffffff" stroke-width="12.811" stroke-opacity="1" stroke-miterlimit="10"/></g></g></g><g clip-path="url(#b9359aff97)"><g clip-path="url(#afe6e201b3)"><g clip-path="url(#5a402d6422)"><path stroke-linecap="butt" transform="matrix(0.198932, 0.0710571, 0.0710571, -0.198932, -221.598783, 578.407204)" fill="none" stroke-linejoin="miter" d="M 2161.992919 2634.89656 L 2607.596636 2634.892806 " stroke="#bcd7f2" stroke-width="20" stroke-opacity="1" stroke-miterlimit="10"/></g></g></g><g clip-path="url(#83a45fb202)"><g clip-path="url(#2acb3c656b)"><g clip-path="url(#bdc915c64e)"><path stroke-linecap="butt" transform="matrix(0.198932, 0.0710571, 0.0710571, -0.198932, -221.598783, 578.407204)" fill="none" stroke-linejoin="miter" d="M 2161.992251 2454.695686 L 2468.396428 2454.689454 " stroke="#bcd7f2" stroke-width="20" stroke-opacity="1" stroke-miterlimit="10"/></g></g></g><g clip-path="url(#9f6a680d18)"><g clip-path="url(#38e0ede05e)"><g clip-path="url(#ac2790c436)"><path stroke-linecap="butt" transform="matrix(0.198932, 0.0710571, 0.0710571, -0.198932, -221.598783, 578.407204)" fill="none" stroke-linejoin="miter" d="M 2501.401992 2454.697146 L 2607.595968 2454.691932 " stroke="#bcd7f2" stroke-width="20" stroke-opacity="1" stroke-miterlimit="10"/></g></g></g><g clip-path="url(#f24d1eec21)"><g clip-path="url(#48ef7cf90e)"><g clip-path="url(#9278602311)"><path stroke-linecap="butt" transform="matrix(0.198932, 0.0710571, 0.0710571, -0.198932, -221.598783, 578.407204)" fill="none" stroke-linejoin="miter" d="M 2162.001731 2548.89352 L 2343.395501 2548.906588 " stroke="#bcd7f2" stroke-width="20" stroke-opacity="1" stroke-miterlimit="10"/></g></g></g><g clip-path="url(#0d199ff75e)"><g clip-path="url(#72c0ee8593)"><g clip-path="url(#8ed5396284)"><path stroke-linecap="butt" transform="matrix(0.198932, 0.0710571, 0.0710571, -0.198932, -221.598783, 578.407204)" fill="none" stroke-linejoin="miter" d="M 2395.200081 2548.893973 L 2607.599228 2548.907181 " stroke="#bcd7f2" stroke-width="20" stroke-opacity="1" stroke-miterlimit="10"/></g></g></g><g clip-path="url(#bf6fc687b0)"><g clip-path="url(#e0abb21b06)"><g clip-path="url(#bd5199fc31)"><path stroke-linecap="butt" transform="matrix(0.198932, 0.0710571, 0.0710571, -0.198932, -221.598783, 578.407204)" fill="none" stroke-linejoin="miter" d="M 2161.997982 2382.004832 L 2607.601699 2382.001079 " stroke="#bcd7f2" stroke-width="20" stroke-opacity="1" stroke-miterlimit="10"/></g></g></g><g clip-path="url(#b6ef27b040)"><g clip-path="url(#860f07547e)"><g clip-path="url(#d205317c90)"><path stroke-linecap="butt" transform="matrix(0.198932, 0.0710571, 0.0710571, -0.198932, -221.598783, 578.407204)" fill="none" stroke-linejoin="miter" d="M 2161.993107 2296.095085 L 2343.410512 2296.096959 " stroke="#bcd7f2" stroke-width="20" stroke-opacity="1" stroke-miterlimit="10"/></g></g></g><g clip-path="url(#77d5f01fd4)"><g clip-path="url(#e2affe7f93)"><g clip-path="url(#115e842cf7)"><path stroke-linecap="butt" transform="matrix(0.198932, 0.0710571, 0.0710571, -0.198932, -221.598783, 578.407204)" fill="none" stroke-linejoin="miter" d="M 2395.208871 2296.101758 L 2607.596824 2296.091331 " stroke="#bcd7f2" stroke-width="20" stroke-opacity="1" stroke-miterlimit="10"/></g></g></g><g clip-path="url(#76ad695c9e)"><g clip-path="url(#a63641e81f)"><g clip-path="url(#bb6feedaa1)"><path stroke-linecap="butt" transform="matrix(0.198932, 0.0710571, 0.0710571, -0.198932, -221.598783, 578.407204)" fill="none" stroke-linejoin="miter" d="M 1646.206416 2124.701625 L 2607.589544 2124.704711 " stroke="#bcd7f2" stroke-width="20" stroke-opacity="1" stroke-miterlimit="10"/></g></g></g><g clip-path="url(#9e8c9e2c6a)"><g clip-path="url(#e26579c3a4)"><g clip-path="url(#c987da58ca)"><path stroke-linecap="butt" transform="matrix(0.198932, 0.0710571, 0.0710571, -0.198932, -221.598783, 578.407204)" fill="none" stroke-linejoin="miter" d="M 1646.204183 1951.706647 L 2307.09662 1951.707522 " stroke="#bcd7f2" stroke-width="20" stroke-opacity="1" stroke-miterlimit="10"/></g></g></g><g clip-path="url(#b9090968b3)"><g clip-path="url(#18bd9da7fc)"><g clip-path="url(#bdfdfd1460)"><path stroke-linecap="butt" transform="matrix(0.198932, 0.0710571, 0.0710571, -0.198932, -221.598783, 578.407204)" fill="none" stroke-linejoin="miter" d="M 2378.395553 1951.706972 L 2607.593531 1951.692319 " stroke="#bcd7f2" stroke-width="20" stroke-opacity="1" stroke-miterlimit="10"/></g></g></g><g clip-path="url(#840946754d)"><g clip-path="url(#af4a035482)"><g clip-path="url(#57fc32e2de)"><path stroke-linecap="butt" transform="matrix(0.198932, 0.0710571, 0.0710571, -0.198932, -221.598783, 578.407204)" fill="none" stroke-linejoin="miter" d="M 1646.198901 2042.207618 L 2037.606025 2042.206422 " stroke="#bcd7f2" stroke-width="20" stroke-opacity="1" stroke-miterlimit="10"/></g></g></g><g clip-path="url(#ed9d061b3c)"><g clip-path="url(#ad31144760)"><g clip-path="url(#eaf03a8958)"><path stroke-linecap="butt" transform="matrix(0.198932, 0.0710571, 0.0710571, -0.198932, -221.598783, 578.407204)" fill="none" stroke-linejoin="miter" d="M 2149.198515 2042.205181 L 2607.605664 2042.199511 " stroke="#bcd7f2" stroke-width="20" stroke-opacity="1" stroke-miterlimit="10"/></g></g></g><g clip-path="url(#6a5f3ba0c3)"><g clip-path="url(#39bf4be476)"><g clip-path="url(#bc2b23cecb)"><path stroke-linecap="butt" transform="matrix(0.198932, 0.0710571, 0.0710571, -0.198932, -221.598783, 578.407204)" fill="none" stroke-linejoin="miter" d="M 1646.200093 1848.20322 L 2607.606856 1848.195112 " stroke="#bcd7f2" stroke-width="20" stroke-opacity="1" stroke-miterlimit="10"/></g></g></g><g clip-path="url(#bc80565223)"><g clip-path="url(#b08d6662a7)"><g clip-path="url(#9f7e66585b)"><path stroke-linecap="butt" transform="matrix(0.198932, 0.0710571, 0.0710571, -0.198932, -221.598783, 578.407204)" fill="none" stroke-linejoin="miter" d="M 1646.201587 1675.307754 L 2307.100245 1675.291215 " stroke="#bcd7f2" stroke-width="20" stroke-opacity="1" stroke-miterlimit="10"/></g></g></g><g clip-path="url(#79aa0c902b)"><g clip-path="url(#6670ef2d7b)"><g clip-path="url(#33808074d7)"><path stroke-linecap="butt" transform="matrix(0.198932, 0.0710571, 0.0710571, -0.198932, -221.598783, 578.407204)" fill="none" stroke-linejoin="miter" d="M 2378.399178 1675.290664 L 2607.60835 1675.299646 " stroke="#bcd7f2" stroke-width="20" stroke-opacity="1" stroke-miterlimit="10"/></g></g></g><g clip-path="url(#087ba16048)"><g clip-path="url(#8f11d4ac92)"><g clip-path="url(#d6fc1a6556)"><path stroke-linecap="butt" transform="matrix(0.198932, 0.0710571, 0.0710571, -0.198932, -221.598783, 578.407204)" fill="none" stroke-linejoin="miter" d="M 1646.202526 1765.791311 L 2037.60343 1765.807529 " stroke="#bcd7f2" stroke-width="20" stroke-opacity="1" stroke-miterlimit="10"/></g></g></g><g clip-path="url(#7ad0e7cfae)"><g clip-path="url(#33ad2120e1)"><g clip-path="url(#fbfcaf865d)"><path stroke-linecap="butt" transform="matrix(0.198932, 0.0710571, 0.0710571, -0.198932, -221.598783, 578.407204)" fill="none" stroke-linejoin="miter" d="M 2149.195919 1765.806288 L 2607.603068 1765.800617 " stroke="#bcd7f2" stroke-width="20" stroke-opacity="1" stroke-miterlimit="10"/></g></g></g><g clip-path="url(#871e6481ec)"><g clip-path="url(#801492dad4)"><g clip-path="url(#bf243874d4)"><path stroke-linecap="butt" transform="matrix(0.198932, 0.0710571, 0.0710571, -0.198932, -221.598783, 578.407204)" fill="none" stroke-linejoin="miter" d="M 1646.196811 1587.198796 L 2607.597353 1587.208103 " stroke="#bcd7f2" stroke-width="20" stroke-opacity="1" stroke-miterlimit="10"/></g></g></g><g clip-path="url(#9beec1783d)"><g clip-path="url(#5c43cc2d02)"><g clip-path="url(#ad81ede453)"><path stroke-linecap="butt" transform="matrix(0.198932, 0.0710571, 0.0710571, -0.198932, -221.598783, 578.407204)" fill="none" stroke-linejoin="miter" d="M 1646.198305 1414.30333 L 2307.090742 1414.304205 " stroke="#bcd7f2" stroke-width="20" stroke-opacity="1" stroke-miterlimit="10"/></g></g></g><g clip-path="url(#9342375c63)"><g clip-path="url(#10ffdb93f5)"><g clip-path="url(#7222449722)"><path stroke-linecap="butt" transform="matrix(0.198932, 0.0710571, 0.0710571, -0.198932, -221.598783, 578.407204)" fill="none" stroke-linejoin="miter" d="M 2378.389676 1414.303654 L 2607.605067 1414.295222 " stroke="#bcd7f2" stroke-width="20" stroke-opacity="1" stroke-miterlimit="10"/></g></g></g><g clip-path="url(#01f6185ef0)"><g clip-path="url(#4f65b126bf)"><g clip-path="url(#5c216303a1)"><path stroke-linecap="butt" transform="matrix(0.198932, 0.0710571, 0.0710571, -0.198932, -221.598783, 578.407204)" fill="none" stroke-linejoin="miter" d="M 1646.193024 1504.804301 L 2037.600147 1504.803105 " stroke="#bcd7f2" stroke-width="20" stroke-opacity="1" stroke-miterlimit="10"/></g></g></g><g clip-path="url(#5bfb973a1d)"><g clip-path="url(#854dac4cff)"><g clip-path="url(#9f346a9291)"><path stroke-linecap="butt" transform="matrix(0.198932, 0.0710571, 0.0710571, -0.198932, -221.598783, 578.407204)" fill="none" stroke-linejoin="miter" d="M 2149.192637 1504.801864 L 2607.599786 1504.796194 " stroke="#bcd7f2" stroke-width="20" stroke-opacity="1" stroke-miterlimit="10"/></g></g></g></svg>