<svg width="133" height="71" viewBox="0 0 133 71" fill="none" xmlns="http://www.w3.org/2000/svg">
<mask id="mask0_114_937" style="mask-type:luminance" maskUnits="userSpaceOnUse" x="0" y="0" width="57" height="71">
<path d="M0.491333 0.392975H56.2606V70.9578H0.491333V0.392975Z" fill="white"/>
</mask>
<g mask="url(#mask0_114_937)">
<path d="M46.2074 12.6551L32.4118 30.1473V17.3669C32.4118 16.8063 32.0006 16.3507 31.4946 16.3507H25.2587C24.7527 16.3507 24.3415 16.8063 24.3415 17.3669V31.7681H11.3332C10.8272 31.7681 10.416 32.2237 10.416 32.7826V39.6877C10.416 40.2466 10.8272 40.7022 11.3332 40.7022H23.0543L13.6264 52.0937C13.2366 52.5663 12.7015 52.8051 12.1664 52.8051C11.6879 52.8051 11.2094 52.6154 10.8288 52.2292C10.0231 51.4112 9.96806 50.0241 10.7065 49.1315L14.0544 45.0871H11.3332C8.64416 45.0871 6.4565 42.6651 6.4565 39.6877V32.7826C6.4565 29.8051 8.64416 27.3832 11.3332 27.3832H20.3805V17.3669C20.3805 14.3894 22.5681 11.9675 25.2587 11.9675H31.4946C34.1837 11.9675 36.3713 14.3894 36.3713 17.3669V18.461L48.0251 3.7532C48.6335 2.98597 48.5815 1.82242 47.9073 1.12463C47.2026 0.396358 46.0942 0.45733 45.4583 1.25843L39.8905 8.26851C36.3805 6.50371 32.4821 5.51969 28.3759 5.51969C12.9767 5.51969 0.492798 19.34 0.492798 36.3884C0.492798 45.5189 4.07316 53.7213 9.76321 59.3731L24.3415 42.0063V55.1034C24.3415 55.6623 24.7527 56.1179 25.2587 56.1179H31.4946C32.0006 56.1179 32.4118 55.6623 32.4118 55.1034V40.7022H45.4201C45.9245 40.7022 46.3358 40.2466 46.3358 39.6877V32.7826C46.3358 32.2237 45.9245 31.7681 45.4201 31.7681H33.3306L41.9406 20.7373C42.656 19.821 43.905 19.7211 44.7336 20.512C45.5607 21.3029 45.6524 22.6884 44.937 23.6029L41.9865 27.3832H45.4201C48.1091 27.3832 50.2968 29.8051 50.2968 32.7826V39.6877C50.2968 42.6651 48.1091 45.0871 45.4201 45.0871H36.3713V55.1034C36.3713 58.0808 34.1837 60.5028 31.4946 60.5028H25.2587C22.5681 60.5028 20.3805 58.0808 20.3805 55.1034V53.1641C19.2981 54.4547 18.2142 55.7453 17.1303 57.0358C15.7774 58.6482 14.3816 60.2284 13.0653 61.878C11.6329 63.6767 10.1316 65.411 8.65791 67.169C8.54173 67.3079 8.42554 67.4451 8.31089 67.5823C7.68256 68.3309 7.7055 69.4961 8.36286 70.2142C9.04775 70.9645 10.1576 70.9374 10.8135 70.1567L15.9578 64.0341C19.6971 66.0986 23.915 67.2588 28.3759 67.2588C43.7751 67.2588 56.2605 53.4368 56.2605 36.3884C56.2605 26.848 52.3499 18.3187 46.2074 12.6551Z" fill="#AE445A"/>
</g>
<path d="M71.0386 41.2806H68V29.8652C68 27.9558 68.8965 27 70.6919 27H72.2979C73.3564 27 74.1092 27.3467 74.5609 28.0402C74.9806 27.3467 75.7334 27 76.8239 27H78.4299C80.2229 27 81.1217 27.9558 81.1217 29.8652V41.2806H78.0831V29.6098C78.0831 29.4957 78.0421 29.3953 77.9645 29.3086C77.8847 29.2174 77.7866 29.1718 77.6725 29.1718H76.4954C76.379 29.1718 76.2809 29.2174 76.2034 29.3086C76.1235 29.3953 76.0848 29.4957 76.0848 29.6098V41.2806H73.037V29.6098C73.037 29.4957 72.9959 29.3953 72.9184 29.3086C72.8385 29.2174 72.7404 29.1718 72.6264 29.1718H71.4492C71.3329 29.1718 71.2348 29.2174 71.1572 29.3086C71.0774 29.3953 71.0386 29.4957 71.0386 29.6098V41.2806Z" fill="#AE445A"/>
<path d="M87.5429 38.7621H90.91V41.2806H84.4951V27.219H90.91V29.6919H87.5429V32.9951H90.691V35.3859H87.5429V38.7621Z" fill="#AE445A"/>
<path d="M99.5354 27.219C101.335 27.219 102.236 28.1748 102.236 30.0842V38.4154C102.236 40.3271 101.335 41.2806 99.5354 41.2806H93.9509V27.219H99.5354ZM99.1887 38.7621V29.7192C99.1887 29.6052 99.1476 29.5048 99.0701 29.4181C98.9902 29.3269 98.8921 29.2812 98.7781 29.2812H96.9987V39.191H98.7781C98.8921 39.191 98.9902 39.1499 99.0701 39.0632C99.1476 38.9788 99.1887 38.8785 99.1887 38.7621Z" fill="#AE445A"/>
<path d="M108.824 27.219V41.2806H105.776V27.219H108.824Z" fill="#AE445A"/>
<path d="M115.411 35.76V41.2806H112.363V27.219H118.714V29.847H115.411V33.2141H118.495V35.76H115.411Z" fill="#AE445A"/>
<path d="M129.924 27.219L126.903 36.1524V41.2806H123.865V36.1524L120.844 27.219H123.71L125.389 33.0864L127.058 27.219H129.924Z" fill="#AE445A"/>
</svg>
